<svg xmlns="http://www.w3.org/2000/svg" width="48" height="48" viewBox="0 0 48 48">
  <path fill="#fff" d="M0 0h48v48H0z" fill-opacity="0"></path>
  <path fill="#25D366" d="M24 4C12.95 4 4 12.95 4 24c0 4.19 1.32 8.07 3.57 11.28L4 44l9.06-3.49A19.88 19.88 0 0 0 24 44c11.05 0 20-8.95 20-20S35.05 4 24 4zm0 36c-3.62 0-7.03-1.14-9.83-3.29l-.7-.5-5.38 2.08 1.05-5.68-.47-.74A15.87 15.87 0 0 1 8 24c0-8.82 7.18-16 16-16s16 7.18 16 16-7.18 16-16 16zm9.29-11.47c-.5-.25-2.94-1.45-3.4-1.61-.46-.17-.8-.25-1.13.25-.33.5-1.3 1.61-1.59 1.94-.29.34-.58.38-1.08.13-.5-.25-2.1-.77-4-2.46-1.48-1.32-2.48-2.95-2.77-3.45-.29-.5-.03-.77.22-1.02.23-.22.5-.58.75-.87s.33-.5.5-.83c.17-.34.08-.63-.04-.88-.13-.25-1.13-2.72-1.55-3.72-.41-.97-.83-.84-1.13-.86-.29-.02-.63-.02-.96-.02-.33 0-.88.13-1.34.63-.46.5-1.76 1.7-1.76 4.14s1.8 4.81 2.05 5.15c.25.34 3.55 5.43 8.63 7.6C26.2 35.8 27.8 36 28.66 36c.86 0 1.8-.09 2.46-.75.66-.66 2.33-2.28 2.33-2.28.33-.38.46-.58.63-.96.17-.38.08-.71-.04-.96-.13-.25-.46-.38-.96-.63z"></path>
</svg>
